<svg width="587" height="145" viewBox="0 0 587 145" fill="none" xmlns="http://www.w3.org/2000/svg">
<mask id="path-1-outside-1_205_159" maskUnits="userSpaceOnUse" x="174" y="46" width="412" height="76" fill="black">
<rect fill="white" x="174" y="46" width="412" height="76"/>
<path d="M177.219 118V49.6562H187.578V108.203H220.859V118H177.219ZM260.508 90.1562V80.3594H284.789V94.2812C284.664 101.125 282.321 106.859 277.758 111.484C273.164 116.078 267.383 118.438 260.414 118.562C255.039 118.438 250.555 117.125 246.961 114.625C243.305 112.219 240.649 109.438 238.993 106.281C238.493 105.25 238.039 104.266 237.633 103.328C237.258 102.359 236.946 101.141 236.696 99.6719C236.227 96.9219 235.993 91.6406 235.993 83.8281C235.993 75.8906 236.227 70.5781 236.696 67.8906C237.196 65.2031 237.961 63.0312 238.993 61.375C240.649 58.2188 243.305 55.4062 246.961 52.9375C250.555 50.4375 255.039 49.1562 260.414 49.0938C267.008 49.1562 272.383 51.1094 276.539 54.9531C280.696 58.8281 283.321 63.625 284.414 69.3438H273.446C272.602 66.5938 271.071 64.25 268.852 62.3125C266.539 60.4688 263.727 59.5156 260.414 59.4531C257.977 59.5156 255.883 60 254.133 60.9062C252.352 61.8438 250.914 63.0156 249.821 64.4219C248.477 65.8906 247.586 67.7812 247.149 70.0938C246.649 72.5312 246.399 77.1094 246.399 83.8281C246.399 90.5469 246.649 95.0938 247.149 97.4688C247.586 99.8438 248.477 101.766 249.821 103.234C250.914 104.641 252.352 105.781 254.133 106.656C255.883 107.688 257.977 108.203 260.414 108.203C264.446 108.203 267.774 106.828 270.399 104.078C273.024 101.453 274.368 98 274.43 93.7188V90.1562H260.508ZM316.188 118V58.8906H297.485V49.6562H345.298V58.8906H326.594V118H316.188ZM360.29 118V49.6562H370.649V108.203H403.931V118H360.29ZM446.064 118V113.688H445.876C444.97 115.344 443.564 116.562 441.658 117.344C439.783 118.156 437.189 118.562 433.876 118.562C428.439 118.5 424.251 117.062 421.314 114.25C418.22 111.5 416.673 107.984 416.673 103.703C416.673 99.6094 418.017 96.2188 420.704 93.5312C423.392 90.7812 427.329 89.375 432.517 89.3125H446.064V84.2031C446.126 79.9219 442.798 77.8438 436.079 77.9688C433.642 77.9688 431.72 78.2188 430.314 78.7188C428.845 79.3125 427.689 80.3125 426.845 81.7188L419.158 75.8594C422.876 70.9844 428.361 68.6094 435.611 68.7344C441.736 68.6719 446.626 69.8281 450.283 72.2031C453.939 74.6406 455.798 78.8281 455.861 84.7656V118H446.064ZM446.064 100.891V97.375H434.345C428.658 97.5 425.845 99.4531 425.908 103.234C425.908 104.891 426.642 106.297 428.111 107.453C429.517 108.734 431.845 109.375 435.095 109.375C439.189 109.438 442.079 108.953 443.767 107.922C445.298 106.891 446.064 104.547 446.064 100.891ZM476.759 69.3438V54.5312H486.556V69.3438H493.681V76.7969H486.556V105.156C486.494 107.625 487.65 108.828 490.025 108.766H493.681V118H488.572C485.134 118 482.322 116.938 480.134 114.812C477.884 112.781 476.759 109.844 476.759 106V76.7969H471.884V69.3438H476.759ZM511.158 69.3438V54.5312H520.955V69.3438H528.08V76.7969H520.955V105.156C520.892 107.625 522.049 108.828 524.424 108.766H528.08V118H522.971C519.533 118 516.721 116.938 514.533 114.812C512.283 112.781 511.158 109.844 511.158 106V76.7969H506.283V69.3438H511.158ZM582.729 97.375H552.401C552.401 101.281 553.526 104.25 555.776 106.281C557.869 108.344 560.619 109.375 564.026 109.375C567.994 109.375 571.541 107.797 574.666 104.641L581.744 110.688C576.776 116 570.932 118.625 564.213 118.562C561.651 118.562 559.151 118.188 556.713 117.438C555.494 117.031 554.307 116.484 553.151 115.797C551.932 115.203 550.791 114.469 549.729 113.594C547.666 111.781 545.994 109.25 544.713 106C543.307 102.875 542.604 98.8125 542.604 93.8125C542.604 89 543.213 85 544.432 81.8125C545.651 78.5625 547.213 76 549.119 74.125C551.057 72.2188 553.229 70.8438 555.635 70C558.01 69.1562 560.354 68.7344 562.666 68.7344C568.229 68.7969 572.932 70.625 576.776 74.2188C580.682 77.875 582.666 82.9062 582.729 89.3125V97.375ZM552.401 89.3125H572.932C572.807 85.5312 571.791 82.6719 569.885 80.7344C568.01 78.8906 565.604 77.9688 562.666 77.9688C559.729 77.9688 557.323 78.8906 555.448 80.7344C553.604 82.6719 552.588 85.5312 552.401 89.3125Z"/>
</mask>
<path d="M177.219 118V49.6562H187.578V108.203H220.859V118H177.219ZM260.508 90.1562V80.3594H284.789V94.2812C284.664 101.125 282.321 106.859 277.758 111.484C273.164 116.078 267.383 118.438 260.414 118.562C255.039 118.438 250.555 117.125 246.961 114.625C243.305 112.219 240.649 109.438 238.993 106.281C238.493 105.25 238.039 104.266 237.633 103.328C237.258 102.359 236.946 101.141 236.696 99.6719C236.227 96.9219 235.993 91.6406 235.993 83.8281C235.993 75.8906 236.227 70.5781 236.696 67.8906C237.196 65.2031 237.961 63.0312 238.993 61.375C240.649 58.2188 243.305 55.4062 246.961 52.9375C250.555 50.4375 255.039 49.1562 260.414 49.0938C267.008 49.1562 272.383 51.1094 276.539 54.9531C280.696 58.8281 283.321 63.625 284.414 69.3438H273.446C272.602 66.5938 271.071 64.25 268.852 62.3125C266.539 60.4688 263.727 59.5156 260.414 59.4531C257.977 59.5156 255.883 60 254.133 60.9062C252.352 61.8438 250.914 63.0156 249.821 64.4219C248.477 65.8906 247.586 67.7812 247.149 70.0938C246.649 72.5312 246.399 77.1094 246.399 83.8281C246.399 90.5469 246.649 95.0938 247.149 97.4688C247.586 99.8438 248.477 101.766 249.821 103.234C250.914 104.641 252.352 105.781 254.133 106.656C255.883 107.688 257.977 108.203 260.414 108.203C264.446 108.203 267.774 106.828 270.399 104.078C273.024 101.453 274.368 98 274.43 93.7188V90.1562H260.508ZM316.188 118V58.8906H297.485V49.6562H345.298V58.8906H326.594V118H316.188ZM360.29 118V49.6562H370.649V108.203H403.931V118H360.29ZM446.064 118V113.688H445.876C444.97 115.344 443.564 116.562 441.658 117.344C439.783 118.156 437.189 118.562 433.876 118.562C428.439 118.5 424.251 117.062 421.314 114.25C418.22 111.5 416.673 107.984 416.673 103.703C416.673 99.6094 418.017 96.2188 420.704 93.5312C423.392 90.7812 427.329 89.375 432.517 89.3125H446.064V84.2031C446.126 79.9219 442.798 77.8438 436.079 77.9688C433.642 77.9688 431.72 78.2188 430.314 78.7188C428.845 79.3125 427.689 80.3125 426.845 81.7188L419.158 75.8594C422.876 70.9844 428.361 68.6094 435.611 68.7344C441.736 68.6719 446.626 69.8281 450.283 72.2031C453.939 74.6406 455.798 78.8281 455.861 84.7656V118H446.064ZM446.064 100.891V97.375H434.345C428.658 97.5 425.845 99.4531 425.908 103.234C425.908 104.891 426.642 106.297 428.111 107.453C429.517 108.734 431.845 109.375 435.095 109.375C439.189 109.438 442.079 108.953 443.767 107.922C445.298 106.891 446.064 104.547 446.064 100.891ZM476.759 69.3438V54.5312H486.556V69.3438H493.681V76.7969H486.556V105.156C486.494 107.625 487.65 108.828 490.025 108.766H493.681V118H488.572C485.134 118 482.322 116.938 480.134 114.812C477.884 112.781 476.759 109.844 476.759 106V76.7969H471.884V69.3438H476.759ZM511.158 69.3438V54.5312H520.955V69.3438H528.08V76.7969H520.955V105.156C520.892 107.625 522.049 108.828 524.424 108.766H528.08V118H522.971C519.533 118 516.721 116.938 514.533 114.812C512.283 112.781 511.158 109.844 511.158 106V76.7969H506.283V69.3438H511.158ZM582.729 97.375H552.401C552.401 101.281 553.526 104.25 555.776 106.281C557.869 108.344 560.619 109.375 564.026 109.375C567.994 109.375 571.541 107.797 574.666 104.641L581.744 110.688C576.776 116 570.932 118.625 564.213 118.562C561.651 118.562 559.151 118.188 556.713 117.438C555.494 117.031 554.307 116.484 553.151 115.797C551.932 115.203 550.791 114.469 549.729 113.594C547.666 111.781 545.994 109.25 544.713 106C543.307 102.875 542.604 98.8125 542.604 93.8125C542.604 89 543.213 85 544.432 81.8125C545.651 78.5625 547.213 76 549.119 74.125C551.057 72.2188 553.229 70.8438 555.635 70C558.01 69.1562 560.354 68.7344 562.666 68.7344C568.229 68.7969 572.932 70.625 576.776 74.2188C580.682 77.875 582.666 82.9062 582.729 89.3125V97.375ZM552.401 89.3125H572.932C572.807 85.5312 571.791 82.6719 569.885 80.7344C568.01 78.8906 565.604 77.9688 562.666 77.9688C559.729 77.9688 557.323 78.8906 555.448 80.7344C553.604 82.6719 552.588 85.5312 552.401 89.3125Z" fill="#59370F"/>
<path d="M177.219 118H174.219L177.219 121V118ZM177.219 49.6562V46.6562L174.219 49.6562H177.219ZM187.578 49.6562H190.578L187.578 46.6562V49.6562ZM187.578 108.203H184.578L187.578 111.203V108.203ZM220.859 108.203H223.859L220.859 105.203V108.203ZM220.859 118V121L223.859 118H220.859ZM180.219 118V49.6562H174.219V118H180.219ZM177.219 52.6562H187.578V46.6562H177.219V52.6562ZM184.578 49.6562V108.203H190.578V49.6562H184.578ZM187.578 111.203H220.859V105.203H187.578V111.203ZM217.859 108.203V118H223.859V108.203H217.859ZM220.859 115H177.219V121H220.859V115ZM260.508 90.1562H257.508L260.508 93.1562V90.1562ZM260.508 80.3594V77.3594L257.508 80.3594H260.508ZM284.789 80.3594H287.789L284.789 77.3594V80.3594ZM284.789 94.2812L287.789 94.336L287.789 94.2812H284.789ZM277.758 111.484L279.879 113.606L279.894 113.591L277.758 111.484ZM260.414 118.562L260.345 121.562L260.468 121.562L260.414 118.562ZM246.961 114.625L248.674 112.162L248.61 112.119L246.961 114.625ZM238.993 106.281L236.293 107.59L236.336 107.675L238.993 106.281ZM237.633 103.328L234.835 104.411L234.88 104.521L237.633 103.328ZM236.696 99.6719L239.653 99.1685L239.653 99.1678L236.696 99.6719ZM236.696 67.8906L233.746 67.3419L233.74 67.3752L236.696 67.8906ZM238.993 61.375L241.539 62.9607L241.649 62.769L238.993 61.375ZM246.961 52.9375L248.64 55.4238L248.674 55.4002L246.961 52.9375ZM260.414 49.0938L260.443 46.0939L260.379 46.094L260.414 49.0938ZM276.539 54.9531L278.585 52.7588L278.576 52.7506L276.539 54.9531ZM284.414 69.3438V72.3438L287.361 68.7802L284.414 69.3438ZM273.446 69.3438L270.578 70.2237L273.446 72.3438V69.3438ZM268.852 62.3125L270.825 60.0528L270.722 59.9668L268.852 62.3125ZM260.414 59.4531L260.471 56.4537L260.337 56.4541L260.414 59.4531ZM254.133 60.9062L252.754 58.2423L252.736 58.2515L254.133 60.9062ZM249.821 64.4219L252.034 66.4469L252.189 66.2637L249.821 64.4219ZM247.149 70.0938L250.088 70.6966L250.096 70.6514L247.149 70.0938ZM247.149 97.4688L250.099 96.9253L250.084 96.8507L247.149 97.4688ZM249.821 103.234L252.189 101.393L252.034 101.209L249.821 103.234ZM254.133 106.656L255.656 104.072L255.456 103.964L254.133 106.656ZM270.399 104.078L268.277 101.957L268.229 102.007L270.399 104.078ZM274.43 93.7188L277.43 93.7625L277.43 93.7188H274.43ZM274.43 90.1562H277.43L274.43 87.1562V90.1562ZM263.508 90.1562V80.3594H257.508V90.1562H263.508ZM260.508 83.3594H284.789V77.3594H260.508V83.3594ZM281.789 80.3594V94.2812H287.789V80.3594H281.789ZM281.79 94.2265C281.678 100.346 279.613 105.332 275.622 109.378L279.894 113.591C285.028 108.387 287.651 101.904 287.789 94.336L281.79 94.2265ZM275.637 109.363C271.635 113.365 266.615 115.451 260.361 115.563L260.468 121.562C268.152 121.424 274.694 118.791 279.879 113.606L275.637 109.363ZM260.484 115.563C255.563 115.449 251.685 114.256 248.674 112.162L245.248 117.088C249.425 119.994 254.516 121.426 260.345 121.562L260.484 115.563ZM248.61 112.119C245.283 109.929 243.021 107.502 241.649 104.887L236.336 107.675C238.277 111.373 241.327 114.508 245.312 117.131L248.61 112.119ZM241.692 104.972C241.208 103.975 240.773 103.029 240.386 102.135L234.88 104.521C235.306 105.502 235.777 106.525 236.293 107.59L241.692 104.972ZM240.431 102.245C240.152 101.525 239.883 100.517 239.653 99.1685L233.738 100.175C234.009 101.765 234.364 103.194 234.835 104.411L240.431 102.245ZM239.653 99.1678C239.233 96.7053 238.993 91.6706 238.993 83.8281H232.993C232.993 91.6107 233.221 97.1385 233.738 100.176L239.653 99.1678ZM238.993 83.8281C238.993 75.8524 239.234 70.7971 239.651 68.4061L233.74 67.3752C233.22 70.3592 232.993 75.9288 232.993 83.8281H238.993ZM239.645 68.4393C240.102 65.983 240.768 64.1996 241.539 62.9607L236.446 59.7893C235.155 61.8629 234.289 64.4233 233.746 67.3419L239.645 68.4393ZM241.649 62.769C243.026 60.1446 245.299 57.6799 248.64 55.4238L245.282 50.4512C241.311 53.1326 238.271 56.2929 236.336 59.981L241.649 62.769ZM248.674 55.4002C251.673 53.3144 255.537 52.1507 260.449 52.0935L260.379 46.094C254.542 46.1618 249.437 47.5606 245.248 50.4748L248.674 55.4002ZM260.386 52.0936C266.365 52.1503 270.982 53.9002 274.502 57.1556L278.576 52.7506C273.784 48.3186 267.651 46.1622 260.443 46.0939L260.386 52.0936ZM274.494 57.1474C278.172 60.5769 280.49 64.7974 281.468 69.9073L287.361 68.7802C286.151 62.4526 283.219 57.0794 278.585 52.7589L274.494 57.1474ZM284.414 66.3438H273.446V72.3438H284.414V66.3438ZM276.314 68.4638C275.302 65.1661 273.454 62.3486 270.825 60.0528L266.879 64.5722C268.687 66.1514 269.902 68.0214 270.578 70.2237L276.314 68.4638ZM270.722 59.9668C267.832 57.6623 264.36 56.527 260.471 56.4537L260.358 62.4526C263.094 62.5042 265.247 63.2752 266.982 64.6582L270.722 59.9668ZM260.337 56.4541C257.551 56.5255 254.991 57.0836 252.754 58.2423L255.513 63.5702C256.775 62.9164 258.402 62.5057 260.491 62.4521L260.337 56.4541ZM252.736 58.2515C250.626 59.362 248.84 60.7956 247.453 62.5801L252.189 66.2637C252.988 65.2356 254.078 64.3255 255.53 63.561L252.736 58.2515ZM247.607 62.3968C245.823 64.3468 244.723 66.7768 244.201 69.5361L250.096 70.6514C250.449 68.7857 251.131 67.4345 252.034 66.4469L247.607 62.3968ZM244.21 69.4909C243.64 72.2681 243.399 77.1372 243.399 83.8281H249.399C249.399 77.0815 249.657 72.7944 250.088 70.6966L244.21 69.4909ZM243.399 83.8281C243.399 90.5123 243.639 95.3615 244.213 98.0868L250.084 96.8507C249.658 94.826 249.399 90.5815 249.399 83.8281H243.399ZM244.198 98.0122C244.716 100.822 245.81 103.295 247.607 105.259L252.034 101.209C251.144 100.236 250.457 98.8656 250.099 96.9253L244.198 98.0122ZM247.453 105.076C248.856 106.881 250.668 108.296 252.81 109.349L255.456 103.964C254.036 103.266 252.973 102.4 252.189 101.393L247.453 105.076ZM252.61 109.241C254.906 110.594 257.549 111.203 260.414 111.203V105.203C258.405 105.203 256.86 104.781 255.656 104.072L252.61 109.241ZM260.414 111.203C265.21 111.203 269.341 109.531 272.569 106.15L268.229 102.007C266.207 104.125 263.681 105.203 260.414 105.203V111.203ZM272.52 106.199C275.782 102.938 277.358 98.6951 277.43 93.7625L271.43 93.675C271.377 97.3049 270.266 99.9687 268.277 101.957L272.52 106.199ZM277.43 93.7188V90.1562H271.43V93.7188H277.43ZM274.43 87.1562H260.508V93.1562H274.43V87.1562ZM316.188 118H313.188L316.188 121V118ZM316.188 58.8906H319.188L316.188 55.8906V58.8906ZM297.485 58.8906H294.485L297.485 61.8906V58.8906ZM297.485 49.6562V46.6562L294.485 49.6562H297.485ZM345.298 49.6562H348.298L345.298 46.6562V49.6562ZM345.298 58.8906V61.8906L348.298 58.8906H345.298ZM326.594 58.8906V55.8906L323.594 58.8906H326.594ZM326.594 118V121L329.594 118H326.594ZM319.188 118V58.8906H313.188V118H319.188ZM316.188 55.8906H297.485V61.8906H316.188V55.8906ZM300.485 58.8906V49.6562H294.485V58.8906H300.485ZM297.485 52.6562H345.298V46.6562H297.485V52.6562ZM342.298 49.6562V58.8906H348.298V49.6562H342.298ZM345.298 55.8906H326.594V61.8906H345.298V55.8906ZM323.594 58.8906V118H329.594V58.8906H323.594ZM326.594 115H316.188V121H326.594V115ZM360.29 118H357.29L360.29 121V118ZM360.29 49.6562V46.6562L357.29 49.6562H360.29ZM370.649 49.6562H373.649L370.649 46.6562V49.6562ZM370.649 108.203H367.649L370.649 111.203V108.203ZM403.931 108.203H406.931L403.931 105.203V108.203ZM403.931 118V121L406.931 118H403.931ZM363.29 118V49.6562H357.29V118H363.29ZM360.29 52.6562H370.649V46.6562H360.29V52.6562ZM367.649 49.6562V108.203H373.649V49.6562H367.649ZM370.649 111.203H403.931V105.203H370.649V111.203ZM400.931 108.203V118H406.931V108.203H400.931ZM403.931 115H360.29V121H403.931V115ZM446.064 118H443.064L446.064 121V118ZM446.064 113.688H449.064L446.064 110.688V113.688ZM445.876 113.688V110.688L443.244 112.247L445.876 113.688ZM441.658 117.344L440.52 114.568L440.465 114.591L441.658 117.344ZM433.876 118.562L433.842 121.562L433.876 121.562V118.562ZM421.314 114.25L423.388 112.083L423.307 112.008L421.314 114.25ZM420.704 93.5312L422.826 95.6526L422.85 95.628L420.704 93.5312ZM432.517 89.3125V86.3125L432.481 86.3127L432.517 89.3125ZM446.064 89.3125V92.3125L449.064 89.3125H446.064ZM446.064 84.2031L443.064 84.1593L443.064 84.2031H446.064ZM436.079 77.9688V80.9688L436.135 80.9682L436.079 77.9688ZM430.314 78.7188L429.309 75.8921L429.189 75.9374L430.314 78.7188ZM426.845 81.7188L425.026 84.1047L429.417 83.2622L426.845 81.7188ZM419.158 75.8594L416.772 74.0399L417.339 78.2453L419.158 75.8594ZM435.611 68.7344L435.559 71.7339L435.641 71.7342L435.611 68.7344ZM450.283 72.2031L451.947 69.707L451.917 69.6873L450.283 72.2031ZM455.861 84.7656H458.861L458.86 84.734L455.861 84.7656ZM455.861 118V121L458.861 118H455.861ZM446.064 97.375H449.064L446.064 94.375V97.375ZM434.345 97.375V94.375L434.279 94.3757L434.345 97.375ZM425.908 103.234H428.908L428.907 103.185L425.908 103.234ZM428.111 107.453L430.131 105.236L429.966 105.096L428.111 107.453ZM435.095 109.375L435.141 106.375L435.095 106.375V109.375ZM443.767 107.922L445.331 110.482L445.443 110.41L443.767 107.922ZM449.064 118V113.688H443.064V118H449.064ZM446.064 110.688H445.876V116.688H446.064V110.688ZM443.244 112.247C442.699 113.244 441.852 114.022 440.52 114.568L442.795 120.12C445.276 119.103 447.241 117.443 448.508 115.128L443.244 112.247ZM440.465 114.591C439.128 115.17 437.003 115.562 433.876 115.562V121.562C437.375 121.562 440.437 121.142 442.85 120.096L440.465 114.591ZM433.911 115.563C428.972 115.506 425.612 114.212 423.388 112.083L419.239 116.417C422.89 119.913 427.905 121.494 433.842 121.562L433.911 115.563ZM423.307 112.008C420.878 109.849 419.673 107.161 419.673 103.703H413.673C413.673 108.808 415.562 113.151 419.321 116.492L423.307 112.008ZM419.673 103.703C419.673 100.337 420.747 97.7313 422.826 95.6526L418.583 91.4099C415.287 94.7062 413.673 98.8815 413.673 103.703H419.673ZM422.85 95.628C424.81 93.6227 427.875 92.3686 432.553 92.3123L432.481 86.3127C426.784 86.3814 421.974 87.9398 418.559 91.4345L422.85 95.628ZM432.517 92.3125H446.064V86.3125H432.517V92.3125ZM449.064 89.3125V84.2031H443.064V89.3125H449.064ZM449.063 84.2469C449.108 81.1715 447.852 78.5429 445.203 76.8889C442.808 75.3931 439.597 74.9028 436.024 74.9693L436.135 80.9682C439.281 80.9097 441.093 81.396 442.026 81.9783C442.705 82.4024 443.082 82.9535 443.064 84.1593L449.063 84.2469ZM436.079 74.9688C433.488 74.9688 431.177 75.2278 429.309 75.8921L431.319 81.5454C432.263 81.2097 433.796 80.9688 436.079 80.9688V74.9688ZM429.189 75.9374C427.094 76.7846 425.439 78.2311 424.273 80.1753L429.417 83.2622C429.939 82.3939 430.596 81.8404 431.438 81.5001L429.189 75.9374ZM428.664 79.3328L420.976 73.4734L417.339 78.2453L425.026 84.1047L428.664 79.3328ZM421.543 77.6789C424.573 73.7066 429.065 71.622 435.559 71.7339L435.662 65.7348C427.656 65.5968 421.18 68.2621 416.772 74.0399L421.543 77.6789ZM435.641 71.7342C441.406 71.6754 445.65 72.7714 448.648 74.7189L451.917 69.6873C447.602 66.8848 442.066 65.6684 435.58 65.7345L435.641 71.7342ZM448.618 74.6993C451.175 76.4038 452.805 79.4689 452.861 84.7972L458.86 84.734C458.792 78.1873 456.702 72.8774 451.947 69.707L448.618 74.6993ZM452.861 84.7656V118H458.861V84.7656H452.861ZM455.861 115H446.064V121H455.861V115ZM449.064 100.891V97.375H443.064V100.891H449.064ZM446.064 94.375H434.345V100.375H446.064V94.375ZM434.279 94.3757C431.197 94.4435 428.373 95.0011 426.259 96.4695C423.935 98.0835 422.862 100.516 422.908 103.284L428.907 103.185C428.89 102.172 429.193 101.737 429.681 101.398C430.379 100.913 431.806 100.432 434.411 100.374L434.279 94.3757ZM422.908 103.234C422.908 105.937 424.169 108.168 426.255 109.81L429.966 105.096C429.115 104.425 428.908 103.845 428.908 103.234H422.908ZM426.09 109.671C428.327 111.708 431.586 112.375 435.095 112.375V106.375C432.104 106.375 430.707 105.76 430.131 105.236L426.09 109.671ZM435.049 112.375C439.22 112.438 442.865 111.989 445.331 110.482L442.203 105.362C441.294 105.917 439.158 106.437 435.141 106.375L435.049 112.375ZM445.443 110.41C448.344 108.456 449.064 104.636 449.064 100.891H443.064C443.064 104.458 442.252 105.325 442.091 105.434L445.443 110.41ZM476.759 69.3438V72.3438L479.759 69.3438H476.759ZM476.759 54.5312V51.5312L473.759 54.5312H476.759ZM486.556 54.5312H489.556L486.556 51.5312V54.5312ZM486.556 69.3438H483.556L486.556 72.3438V69.3438ZM493.681 69.3438H496.681L493.681 66.3438V69.3438ZM493.681 76.7969V79.7969L496.681 76.7969H493.681ZM486.556 76.7969V73.7969L483.556 76.7969H486.556ZM486.556 105.156L489.555 105.232L489.556 105.156H486.556ZM490.025 108.766V105.766L489.946 105.767L490.025 108.766ZM493.681 108.766H496.681L493.681 105.766V108.766ZM493.681 118V121L496.681 118H493.681ZM480.134 114.812L482.225 112.661L482.145 112.586L480.134 114.812ZM476.759 76.7969H479.759L476.759 73.7969V76.7969ZM471.884 76.7969H468.884L471.884 79.7969V76.7969ZM471.884 69.3438V66.3438L468.884 69.3438H471.884ZM479.759 69.3438V54.5312H473.759V69.3438H479.759ZM476.759 57.5312H486.556V51.5312H476.759V57.5312ZM483.556 54.5312V69.3438H489.556V54.5312H483.556ZM486.556 72.3438H493.681V66.3438H486.556V72.3438ZM490.681 69.3438V76.7969H496.681V69.3438H490.681ZM493.681 73.7969H486.556V79.7969H493.681V73.7969ZM483.556 76.7969V105.156H489.556V76.7969H483.556ZM483.557 105.08C483.515 106.733 483.862 108.582 485.214 109.989C486.589 111.42 488.439 111.808 490.104 111.765L489.946 105.767C489.601 105.776 489.436 105.734 489.394 105.72C489.371 105.713 489.448 105.736 489.54 105.831C489.628 105.923 489.634 105.983 489.613 105.914C489.588 105.83 489.545 105.62 489.555 105.232L483.557 105.08ZM490.025 111.766H493.681V105.766H490.025V111.766ZM490.681 108.766V118H496.681V108.766H490.681ZM493.681 115H488.572V121H493.681V115ZM488.572 115C485.807 115 483.779 114.171 482.225 112.661L478.044 116.964C480.864 119.704 484.462 121 488.572 121V115ZM482.145 112.586C480.685 111.268 479.759 109.238 479.759 106H473.759C473.759 110.449 475.084 114.294 478.124 117.039L482.145 112.586ZM479.759 106V76.7969H473.759V106H479.759ZM476.759 73.7969H471.884V79.7969H476.759V73.7969ZM474.884 76.7969V69.3438H468.884V76.7969H474.884ZM471.884 72.3438H476.759V66.3438H471.884V72.3438ZM511.158 69.3438V72.3438L514.158 69.3438H511.158ZM511.158 54.5312V51.5312L508.158 54.5312H511.158ZM520.955 54.5312H523.955L520.955 51.5312V54.5312ZM520.955 69.3438H517.955L520.955 72.3438V69.3438ZM528.08 69.3438H531.08L528.08 66.3438V69.3438ZM528.08 76.7969V79.7969L531.08 76.7969H528.08ZM520.955 76.7969V73.7969L517.955 76.7969H520.955ZM520.955 105.156L523.954 105.232L523.955 105.156H520.955ZM524.424 108.766V105.766L524.345 105.767L524.424 108.766ZM528.08 108.766H531.08L528.08 105.766V108.766ZM528.08 118V121L531.08 118H528.08ZM514.533 114.812L516.623 112.661L516.543 112.586L514.533 114.812ZM511.158 76.7969H514.158L511.158 73.7969V76.7969ZM506.283 76.7969H503.283L506.283 79.7969V76.7969ZM506.283 69.3438V66.3438L503.283 69.3438H506.283ZM514.158 69.3438V54.5312H508.158V69.3438H514.158ZM511.158 57.5312H520.955V51.5312H511.158V57.5312ZM517.955 54.5312V69.3438H523.955V54.5312H517.955ZM520.955 72.3438H528.08V66.3438H520.955V72.3438ZM525.08 69.3438V76.7969H531.08V69.3438H525.08ZM528.08 73.7969H520.955V79.7969H528.08V73.7969ZM517.955 76.7969V105.156H523.955V76.7969H517.955ZM517.956 105.08C517.914 106.733 518.26 108.582 519.612 109.989C520.988 111.42 522.837 111.808 524.503 111.765L524.345 105.767C524 105.776 523.835 105.734 523.793 105.72C523.769 105.713 523.847 105.736 523.938 105.831C524.027 105.923 524.032 105.983 524.012 105.914C523.987 105.83 523.944 105.62 523.954 105.232L517.956 105.08ZM524.424 111.766H528.08V105.766H524.424V111.766ZM525.08 108.766V118H531.08V108.766H525.08ZM528.08 115H522.971V121H528.08V115ZM522.971 115C520.206 115 518.178 114.171 516.623 112.661L512.443 116.964C515.263 119.704 518.86 121 522.971 121V115ZM516.543 112.586C515.084 111.268 514.158 109.238 514.158 106H508.158C508.158 110.449 509.482 114.294 512.523 117.039L516.543 112.586ZM514.158 106V76.7969H508.158V106H514.158ZM511.158 73.7969H506.283V79.7969H511.158V73.7969ZM509.283 76.7969V69.3438H503.283V76.7969H509.283ZM506.283 72.3438H511.158V66.3438H506.283V72.3438ZM582.729 97.375V100.375L585.729 97.375H582.729ZM552.401 97.375V94.375L549.401 97.375H552.401ZM555.776 106.281L557.881 104.144L557.786 104.054L555.776 106.281ZM574.666 104.641L576.615 102.36L572.534 102.53L574.666 104.641ZM581.744 110.688L583.935 112.737L583.693 108.407L581.744 110.688ZM564.213 118.562L564.241 115.563L564.213 115.562V118.562ZM556.713 117.438L555.764 120.284L555.831 120.305L556.713 117.438ZM553.151 115.797L554.684 113.218L554.465 113.1L553.151 115.797ZM549.729 113.594L547.748 115.847L547.822 115.91L549.729 113.594ZM544.713 106L547.504 104.9L547.449 104.769L544.713 106ZM544.432 81.8125L547.234 82.8839L547.241 82.8659L544.432 81.8125ZM549.119 74.125L551.223 76.2638L551.223 76.2635L549.119 74.125ZM555.635 70L556.628 72.831L556.639 72.8269L555.635 70ZM562.666 68.7344L562.7 65.7346L562.666 65.7344V68.7344ZM576.776 74.2188L578.826 72.0285L578.824 72.0274L576.776 74.2188ZM582.729 89.3125H585.729L585.729 89.2832L582.729 89.3125ZM552.401 89.3125L549.404 89.1639L552.401 92.3125V89.3125ZM572.932 89.3125V92.3125L575.93 89.2134L572.932 89.3125ZM569.885 80.7344L572.024 78.6304L571.988 78.5953L569.885 80.7344ZM555.448 80.7344L553.344 78.5953L553.274 78.6663L555.448 80.7344ZM582.729 94.375H552.401V100.375H582.729V94.375ZM549.401 97.375C549.401 101.87 550.715 105.754 553.765 108.508L557.786 104.054C556.336 102.746 555.401 100.693 555.401 97.375H549.401ZM553.67 108.418C556.415 111.122 559.967 112.375 564.026 112.375V106.375C561.272 106.375 559.324 105.566 557.881 104.144L553.67 108.418ZM564.026 112.375C568.894 112.375 573.183 110.402 576.798 106.751L572.534 102.53C569.899 105.191 567.095 106.375 564.026 106.375V112.375ZM572.718 106.922L579.796 112.968L583.693 108.407L576.615 102.36L572.718 106.922ZM579.553 108.638C575.105 113.394 570.045 115.617 564.241 115.563L564.185 121.562C571.819 121.633 578.446 118.606 583.935 112.737L579.553 108.638ZM564.213 115.562C561.948 115.562 559.746 115.232 557.595 114.57L555.831 120.305C558.556 121.143 561.353 121.562 564.213 121.562V115.562ZM557.662 114.591C556.656 114.256 555.664 113.801 554.684 113.218L551.617 118.375C552.95 119.168 554.332 119.806 555.764 120.284L557.662 114.591ZM554.465 113.1C553.461 112.611 552.519 112.005 551.636 111.278L547.822 115.91C549.063 116.932 550.403 117.795 551.837 118.494L554.465 113.1ZM551.709 111.34C550.089 109.916 548.657 107.824 547.504 104.9L541.922 107.1C543.332 110.676 545.244 113.646 547.748 115.847L551.709 111.34ZM547.449 104.769C546.278 102.166 545.604 98.5671 545.604 93.8125H539.604C539.604 99.0579 540.336 103.584 541.977 107.231L547.449 104.769ZM545.604 93.8125C545.604 89.2276 546.188 85.6201 547.234 82.8839L541.63 80.7411C540.238 84.3799 539.604 88.7724 539.604 93.8125H545.604ZM547.241 82.8659C548.35 79.9077 549.706 77.7556 551.223 76.2638L547.016 71.9862C544.72 74.2444 542.951 77.2173 541.623 80.7591L547.241 82.8659ZM551.223 76.2635C552.867 74.6462 554.666 73.519 556.628 72.831L554.642 67.169C551.792 68.1685 549.247 69.7913 547.015 71.9865L551.223 76.2635ZM556.639 72.8269C558.721 72.0874 560.725 71.7344 562.666 71.7344V65.7344C559.982 65.7344 557.299 66.2251 554.631 67.1731L556.639 72.8269ZM562.633 71.7342C567.493 71.7888 571.464 73.3592 574.727 76.4101L578.824 72.0274C574.4 67.8908 568.965 65.805 562.7 65.7346L562.633 71.7342ZM574.726 76.409C577.917 79.3959 579.673 83.5807 579.729 89.3418L585.729 89.2832C585.66 82.2318 583.447 76.3541 578.826 72.0285L574.726 76.409ZM579.729 89.3125V97.375H585.729V89.3125H579.729ZM552.401 92.3125H572.932V86.3125H552.401V92.3125ZM575.93 89.2134C575.79 84.9759 574.634 81.2839 572.024 78.6304L567.747 82.8384C568.948 84.0598 569.824 86.0866 569.934 89.4116L575.93 89.2134ZM571.988 78.5953C569.485 76.1331 566.29 74.9688 562.666 74.9688V80.9688C564.917 80.9688 566.535 81.6481 567.782 82.8734L571.988 78.5953ZM562.666 74.9688C559.042 74.9688 555.848 76.1331 553.344 78.5953L557.551 82.8734C558.797 81.6481 560.415 80.9688 562.666 80.9688V74.9688ZM553.274 78.6663C550.764 81.3045 549.613 84.9599 549.404 89.1639L555.397 89.4611C555.563 86.1026 556.444 84.0393 557.621 82.8025L553.274 78.6663Z" fill="white" mask="url(#path-1-outside-1_205_159)"/>
<path d="M67.5156 135.937H77.1672C78.2547 135.937 79.0703 134.895 78.7984 133.898L70.2344 97.875H56.6406L65.2953 134.216C65.5672 135.213 66.4734 135.937 67.5156 135.937Z" fill="#D3883E"/>
<path d="M94.1595 135.937H84.5079C83.4204 135.937 82.6048 134.895 82.8767 133.898L91.4407 97.875H105.034L96.3798 134.216C96.1079 135.213 95.2017 135.937 94.1595 135.937Z" fill="#D3883E"/>
<path d="M97.0141 14.4093C99.4156 13.8655 101.953 13.5483 104.536 13.5936C121.664 13.7749 135.711 27.7311 135.937 44.8593C136.062 54.5585 131.84 63.2798 125.094 69.1872C126.247 72.3401 126.875 75.7448 126.875 79.2969V99.8688C126.875 102.723 126.286 105.578 125.108 108.206L113.689 134.895C113.462 135.53 112.828 135.938 112.148 135.938H102.27C101.047 135.938 100.231 134.669 100.775 133.581L106.666 119.852C107.209 118.628 106.937 117.223 105.986 116.272L95.0656 105.352C94.3406 104.627 75.5867 93.8399 74.5445 93.8399L58.9516 104.219V134.216C58.9516 135.167 58.1812 135.938 57.2297 135.938H47.0344C46.0828 135.938 45.3125 135.167 45.3125 134.261V104.128L36.3686 86.1028L27.2781 77.0313C17.2187 77.0313 9.0625 68.875 9.0625 58.8156V57.8188C9.0625 55.9156 10.6031 54.375 12.5062 54.375C13.6391 54.375 14.6359 53.5594 14.8625 52.4266C16.5844 43.5907 23.2453 35.0266 31.7187 33.0782V20.7985C31.7187 19.0766 33.8484 18.3063 34.9812 19.5751L49.9815 36.2789L48.7911 40.7206L56.8196 45.286C57.5074 46.7376 58.0118 48.2429 58.3738 49.8451L55.4507 54.3574L58.9516 58.9557V60.8094C58.9516 62.8485 61.0812 64.2078 62.9391 63.3016L63.481 63.0383L68.3068 64.8227L72.4497 58.6761L77.1142 56.4073L81.529 57.8215L85.9501 52.1533C87.4477 51.5194 88.9992 51.0146 90.5824 50.6404L94.922 56.0162L99.4623 49.9136C107.981 50.4963 115.505 54.7013 120.505 61.0002C124.186 57.1749 126.543 52.0677 126.83 46.4453C127.509 33.4405 117.087 22.6561 104.219 22.6561C102.497 22.6561 100.775 22.8374 99.1437 23.2452C97.2859 23.653 95.3828 22.8827 94.3406 21.2968C94.3406 21.2741 94.3293 21.2628 94.318 21.2515C94.3066 21.2401 94.2953 21.2288 94.2953 21.2061C92.5734 18.6233 93.9781 15.089 97.0141 14.4093Z" fill="#F3AD61"/>
<path d="M53.2875 40.0109L49.9344 36.25H45.3125C42.8203 36.25 40.7812 38.2891 40.7812 40.7812C40.7812 43.2734 42.8203 45.3125 45.3125 45.3125H56.8531C55.9469 43.3641 54.6922 41.5969 53.2875 40.0109Z" fill="#D3883E"/>
<path d="M90.489 50.6594C92.7546 50.1156 95.0656 49.8438 97.4218 49.8438C98.1015 49.8438 98.8265 49.8891 99.5511 49.9344L99.5515 65.1594C99.5515 67.6516 97.5125 69.6906 95.0203 69.6906C92.5281 69.6906 90.489 67.6516 90.489 65.1594V50.6594Z" fill="#D3883E"/>
<path d="M84.5079 52.7892L76.9407 56.4595V68.9204C76.9407 71.4126 78.9797 73.4517 81.4719 73.4517C83.9641 73.4517 86.0032 71.4126 86.0032 68.9204V52.1548C85.5047 52.336 85.0063 52.5626 84.5079 52.7892Z" fill="#D3883E"/>
<path d="M67.9688 77.2119C70.4609 77.2119 72.5 75.1728 72.5 72.6807V58.6338L63.4375 63.0291V72.6807C63.4375 75.1728 65.4766 77.2119 67.9688 77.2119Z" fill="#D3883E"/>
<path d="M58.3625 49.8438C58.725 51.4297 58.9062 53.0609 58.9062 54.7828V58.9062H52.1094C49.6172 58.9062 47.5781 56.8672 47.5781 54.375C47.5781 51.8828 49.6172 49.8438 52.1094 49.8438H58.3625Z" fill="#D3883E"/>
<path d="M39.5345 81.1207C38.3754 78.6988 35.9038 77.0312 33.033 77.0312H27.2783V84.2359C27.2783 94.6125 35.1627 103.131 45.3126 104.128V91.0328L39.5345 81.1207Z" fill="#FFDEA7"/>
<path d="M75.4 91.3047H58.9062V104.219H92.2563C93.2984 104.219 94.2953 104.627 95.0203 105.352L88.2234 97.2859C85.0516 93.4797 80.3391 91.3047 75.4 91.3047Z" fill="#FFDEA7"/>
<path d="M27.2783 52.5042C27.2783 51.0556 28.2875 49.9341 29.4986 49.9341C30.75 49.9341 31.7189 51.1022 31.7189 52.5042V56.3363C31.7189 57.7383 30.75 58.8597 29.4986 58.9064C28.2471 58.9064 27.2783 57.7383 27.2783 56.3363V52.5042Z" fill="#212121"/>
<path d="M15.5875 54.375C16.675 54.375 17.2641 55.5984 16.6297 56.4594L10.1953 65.1141C9.47031 63.1656 9.0625 61.0359 9.0625 58.8156V57.8188C9.0625 55.9156 10.6031 54.375 12.5062 54.375H15.5875Z" fill="#212121"/>
</svg>
